<?xml version="1.0" encoding="UTF-8"?>
<!DOCTYPE svg PUBLIC "-//W3C//DTD SVG 1.1//EN" "http://www.w3.org/Graphics/SVG/1.1/DTD/svg11.dtd">
<svg version="1.1" xmlns="http://www.w3.org/2000/svg" xmlns:xlink="http://www.w3.org/1999/xlink" x="0" y="0" width="30" height="30" viewBox="0, 0, 20, 20">
  <g id="Layer_1">
    <path d="M10,20 C4.477,20 0,15.523 0,10 C0,4.477 4.477,-0 10,-0 C15.523,-0 20,4.477 20,10 C20,15.523 15.523,20 10,20 z" fill="#444444"/>
    <path d="M9.735,14.284 C9.97,14.045 10.155,13.699 10.155,13.699 L11.305,14.029 L11.464,14.648 C11.464,14.648 13.949,14.962 15.299,14.419 C16.648,13.876 17.5,12.916 17.5,12.916 C17.5,12.916 17.073,11.816 16.357,11.673 C15.641,11.531 15.708,11.673 15.193,11.87 C14.678,12.066 12.2,10.839 11.781,10.126 C11.361,9.412 12.693,6.322 12.249,5.836 C11.806,5.349 8.657,4.912 8.32,5.676 C7.983,6.439 8.155,8.155 8.155,8.155 C8.155,8.155 2.721,6.208 2.54,6.378 C2.36,6.549 2.841,7.581 2.841,7.581 L8.391,9.097 L8.391,9.647 C8.391,9.647 3.529,8.126 3.311,8.401 C3.092,8.676 3.683,9.571 3.683,9.571 L8.194,10.667 C8.194,10.667 8.23,11.161 8.194,11.178 C8.159,11.194 4.702,10.178 4.64,10.51 C4.579,10.842 5.32,11.969 5.32,11.969 L8.037,12.238 C8.037,12.238 7.748,13.738 7.902,13.883 C8.057,14.028 9.399,14.398 9.735,14.284 z" fill="#FFFFFF"/>
  </g>
</svg>
