<?xml version="1.0" encoding="UTF-8"?>
<!DOCTYPE svg PUBLIC "-//W3C//DTD SVG 1.1//EN" "http://www.w3.org/Graphics/SVG/1.1/DTD/svg11.dtd">
<svg version="1.1" xmlns="http://www.w3.org/2000/svg" xmlns:xlink="http://www.w3.org/1999/xlink" x="0" y="0" width="40" height="40" viewBox="0, 0, 20, 20">
  <g id="Layer_1">
    <path d="M10,20 C4.477,20 0,15.523 0,10 C0,4.477 4.477,0 10,0 C15.523,0 20,4.477 20,10 C20,15.523 15.523,20 10,20 z" fill="#444444"/>
    <g>
      <path d="M10,14.594 C6.686,14.594 4,11.907 4,8.594 C4,5.28 6.686,2.594 10,2.594 C13.314,2.594 16,5.28 16,8.594 C16,11.907 13.314,14.594 10,14.594 z" fill="#FFFFFF"/>
      <path d="M7.585,10.375 L12.415,10.375 C13.385,10.375 14.172,11.047 14.172,11.875 L14.172,15.906 C14.172,16.735 13.385,17.406 12.415,17.406 L7.585,17.406 C6.615,17.406 5.828,16.735 5.828,15.906 L5.828,11.875 C5.828,11.047 6.615,10.375 7.585,10.375 z" fill="#FFFFFF"/>
    </g>
    <path d="M8.527,12.973 L9.277,11.674 L10.027,10.375 L10.777,11.674 L11.527,12.973 L10.027,12.973 z" fill="#444444"/>
    <path d="M7.027,9.938 C6.198,9.938 5.527,9.266 5.527,8.438 C5.527,7.609 6.198,6.938 7.027,6.938 C7.855,6.938 8.527,7.609 8.527,8.438 C8.527,9.266 7.855,9.938 7.027,9.938 z" fill="#444444"/>
    <path d="M12.982,9.938 C12.154,9.938 11.482,9.266 11.482,8.438 C11.482,7.609 12.154,6.938 12.982,6.938 C13.811,6.938 14.482,7.609 14.482,8.438 C14.482,9.266 13.811,9.938 12.982,9.938 z" fill="#444444"/>
    <path d="M7.348,14.688 L8.527,14.688 L8.527,17.688 L7.348,17.688 L7.348,14.688 z" fill="#444444"/>
    <path d="M9.411,14.688 L10.589,14.688 L10.589,17.688 L9.411,17.688 L9.411,14.688 z" fill="#444444"/>
    <path d="M11.482,14.688 L12.661,14.688 L12.661,17.688 L11.482,17.688 L11.482,14.688 z" fill="#444444"/>
  </g>
</svg>
