<?xml version="1.0" encoding="UTF-8"?>
<!DOCTYPE svg PUBLIC "-//W3C//DTD SVG 1.1//EN" "http://www.w3.org/Graphics/SVG/1.1/DTD/svg11.dtd">
<svg version="1.1" xmlns="http://www.w3.org/2000/svg" xmlns:xlink="http://www.w3.org/1999/xlink" x="0" y="0" width="30" height="30" viewBox="0, 0, 20, 20">
  <g id="Layer_1">
    <path d="M10,20 C4.477,20 0,15.523 0,10 C0,4.477 4.477,-0 10,-0 C15.523,-0 20,4.477 20,10 C20,15.523 15.523,20 10,20 z" fill="#444444"/>
    <path d="M9.483,3.281 C9.41,3.281 9.337,3.282 9.265,3.284 C9.208,3.286 9.151,3.288 9.094,3.29 C8.816,3.34 8.687,3.461 8.617,3.601 C8.541,3.755 8.544,3.962 8.629,4.145 C8.715,4.33 8.872,4.48 9.092,4.536 C9.312,4.592 9.614,4.563 10.012,4.309 L10.329,4.807 C9.83,5.126 9.347,5.21 8.946,5.107 C8.545,5.005 8.248,4.725 8.095,4.395 C7.95,4.085 7.923,3.72 8.062,3.397 C6.707,3.616 5.48,4.135 4.538,4.867 C4.228,5.204 4.198,5.596 4.334,5.864 C4.486,6.165 4.845,6.384 5.564,6.157 L5.743,6.72 C4.84,7.005 4.097,6.701 3.808,6.132 C3.737,5.993 3.694,5.842 3.678,5.688 C3.526,5.868 3.388,6.056 3.267,6.251 L3.271,6.253 C2.999,6.872 2.993,7.301 3.101,7.58 C3.21,7.859 3.437,8.036 3.787,8.133 C4.487,8.328 5.62,8.093 6.418,7.497 C6.76,7.242 7.084,6.623 7.112,6.143 C7.126,5.903 7.075,5.714 6.975,5.593 C6.874,5.472 6.714,5.381 6.381,5.385 L6.375,4.795 C6.832,4.79 7.204,4.945 7.429,5.216 C7.654,5.487 7.721,5.836 7.701,6.178 C7.661,6.861 7.303,7.572 6.772,7.97 C5.828,8.674 4.583,8.967 3.629,8.702 C3.188,8.578 2.797,8.311 2.595,7.896 C2.294,9.33 2.732,10.663 3.565,11.585 C3.674,11.706 3.79,11.82 3.911,11.926 C3.824,11.677 3.785,11.417 3.794,11.165 C3.811,10.713 3.986,10.27 4.338,9.964 C4.626,9.714 5.024,9.569 5.501,9.57 C5.533,9.57 5.565,9.57 5.597,9.572 C5.672,9.575 5.748,9.581 5.825,9.591 L5.748,10.177 C5.256,10.112 4.937,10.225 4.724,10.409 C4.512,10.594 4.395,10.871 4.383,11.187 C4.36,11.819 4.764,12.557 5.636,12.771 L5.635,12.777 C6.494,12.941 7.452,12.789 8.413,12.202 C8.414,12.202 8.415,12.202 8.415,12.201 C8.615,12.061 8.723,11.923 8.776,11.804 C8.839,11.665 8.838,11.543 8.793,11.412 C8.704,11.15 8.385,10.881 8.092,10.806 C7.618,10.685 7.317,10.851 7.176,11.05 C7.035,11.248 7.026,11.443 7.244,11.612 L6.882,12.078 C6.434,11.729 6.406,11.115 6.696,10.707 C6.913,10.402 7.295,10.192 7.755,10.179 C7.774,10.178 7.794,10.177 7.813,10.178 C7.949,10.179 8.091,10.197 8.238,10.235 C8.727,10.36 9.18,10.717 9.352,11.221 C9.396,11.353 9.418,11.496 9.411,11.642 C9.938,11.372 10.495,11.133 11.061,10.953 C12.013,10.518 12.426,9.755 12.41,9.113 C12.394,8.466 11.994,7.922 11.072,7.83 L11.13,7.243 C12.288,7.358 12.976,8.186 12.999,9.098 C13.012,9.63 12.817,10.183 12.425,10.654 C12.932,10.597 13.437,10.607 13.925,10.705 C13.826,10.501 13.778,10.28 13.784,10.06 C13.806,9.364 14.398,8.715 15.327,8.706 C15.389,8.705 15.453,8.707 15.518,8.712 L15.47,9.3 C14.684,9.237 14.388,9.65 14.374,10.079 C14.361,10.503 14.644,10.977 15.455,11.04 C16.348,11.048 16.989,10.563 17.303,9.843 C17.723,8.879 17.524,7.434 16.203,6.112 C16.178,6.087 16.153,6.061 16.128,6.037 C16.114,6.156 16.083,6.272 16.038,6.379 C15.809,6.928 15.273,7.299 14.716,7.402 C13.948,7.545 13.318,7.233 13.027,6.758 C12.736,6.283 12.812,5.61 13.336,5.256 L13.666,5.746 C13.385,5.936 13.373,6.194 13.53,6.45 C13.687,6.707 14.04,6.929 14.608,6.823 C14.965,6.757 15.363,6.465 15.493,6.152 C15.559,5.996 15.571,5.841 15.506,5.664 C15.453,5.52 15.342,5.356 15.136,5.182 L15.13,5.177 C14.268,4.527 13.351,4.06 12.423,3.752 C12.423,3.753 12.424,3.754 12.425,3.755 C12.636,4.141 12.652,4.578 12.522,4.965 C12.262,5.74 11.446,6.35 10.437,6.316 C10.218,6.309 10.009,6.414 9.831,6.621 C9.654,6.827 9.524,7.13 9.494,7.452 C9.434,8.096 9.712,8.805 10.799,9.156 L10.617,9.718 C9.32,9.299 8.823,8.28 8.905,7.397 C8.947,6.956 9.117,6.546 9.384,6.236 C9.651,5.926 10.03,5.712 10.456,5.726 C11.215,5.751 11.793,5.281 11.962,4.777 C12.047,4.525 12.036,4.274 11.907,4.038 C11.782,3.809 11.533,3.583 11.089,3.417 C10.549,3.324 10.01,3.28 9.483,3.281 z M12.678,11.235 C11.355,11.343 9.92,11.974 8.723,12.705 C6.956,13.785 5.096,13.549 3.776,12.57 C4.295,14.428 6.135,14.805 8.054,14.335 C8.246,14.263 8.435,14.129 8.596,13.955 C8.819,13.715 8.98,13.404 9.031,13.146 L9.61,13.261 C9.533,13.652 9.323,14.039 9.029,14.357 C8.746,14.661 8.378,14.905 7.952,14.969 C7.739,15.444 7.563,15.906 7.492,16.228 C7.38,16.735 7.94,16.93 8.191,16.419 C8.792,15.196 9.639,14.107 10.698,13.168 C11.521,12.626 12.226,11.959 12.678,11.235 z" fill="#FFFFFF"/>
  </g>
</svg>
