<?xml version="1.0" encoding="UTF-8"?>
<!DOCTYPE svg PUBLIC "-//W3C//DTD SVG 1.1//EN" "http://www.w3.org/Graphics/SVG/1.1/DTD/svg11.dtd">
<svg version="1.1" xmlns="http://www.w3.org/2000/svg" xmlns:xlink="http://www.w3.org/1999/xlink" x="0" y="0" width="20" height="20" viewBox="0, 0, 40, 40">
  <g id="Layer_1">
    <path d="M20,40 C8.954,40 0,31.046 0,20 C0,8.954 8.954,0 20,0 C31.046,0 40,8.954 40,20 C40,31.046 31.046,40 20,40 z" fill="#444444"/>
    <path d="M20.002,6.909 C18.042,6.909 16.513,7.196 15.444,7.62 C14.909,7.832 14.499,8.075 14.183,8.364 C14.025,8.508 13.886,8.67 13.788,8.848 C12.642,9.899 11.798,11.547 11.251,13.371 C10.728,15.115 10.485,17.027 10.616,18.772 C10.517,20.032 11.207,21.823 11.998,23.257 L12.002,23.264 L12.003,23.266 C13.88,25.201 16.623,26.633 19.493,27.006 L19.493,12.88 C19.661,12.886 19.831,12.891 20.002,12.891 C20.179,12.891 20.354,12.886 20.528,12.878 L20.528,26.992 C23.958,26.515 27.199,24.527 28.974,22 C29.324,20.969 29.474,19.871 29.381,18.962 C29.545,17.167 29.304,15.178 28.762,13.371 C28.21,11.534 27.36,9.875 26.201,8.826 C26.104,8.656 25.972,8.502 25.821,8.364 C25.505,8.075 25.095,7.832 24.56,7.62 C23.49,7.196 21.962,6.909 20.002,6.909 z M20.002,7.943 C21.86,7.943 23.271,8.233 24.172,8.59 C24.623,8.769 24.957,8.939 25.141,9.107 C25.326,9.276 25.335,9.411 25.335,9.431 C25.335,10.014 24.875,10.602 23.913,11.079 C22.951,11.557 21.551,11.856 20.002,11.856 C18.447,11.856 17.049,11.575 16.091,11.112 C15.132,10.65 14.667,10.091 14.667,9.431 C14.667,9.411 14.709,9.276 14.894,9.107 C15.078,8.939 15.381,8.769 15.831,8.59 C16.733,8.233 18.143,7.943 20.002,7.943 z M26.167,10.337 C26.821,11.205 27.385,12.377 27.772,13.669 C28.192,15.069 28.414,16.605 28.393,18.021 C27.494,17.279 26.813,16.102 26.366,14.843 C25.886,13.494 25.67,12.02 25.921,10.756 C26.018,10.623 26.099,10.482 26.167,10.337 z M13.83,10.358 C13.861,10.43 13.895,10.5 13.934,10.569 C14.238,12.007 13.987,13.605 13.442,15.011 C13.003,16.147 12.381,17.171 11.617,17.876 C11.613,16.5 11.834,15.022 12.24,13.669 C12.625,12.387 13.183,11.224 13.83,10.358 z M27.229,25.267 C25.205,26.819 22.652,27.868 20.002,28.094 L19.959,28.097 L19.914,28.094 C17.293,27.87 14.777,26.837 12.766,25.316 C12.713,25.484 12.686,25.654 12.686,25.822 C12.686,26.683 13.381,27.565 14.703,28.254 C16.026,28.944 17.914,29.393 20.005,29.393 C22.096,29.393 23.985,28.944 25.307,28.254 C26.629,27.565 27.324,26.683 27.324,25.822 C27.324,25.638 27.292,25.452 27.229,25.267 z M11.97,27.109 C11.009,27.821 10.5,28.63 10.5,29.426 C10.5,30.064 11.07,31.047 11.948,31.811 C12.725,32.487 13.713,32.985 14.567,33.091 C15.104,31.836 15.688,30.791 16.319,29.967 C15.549,29.762 14.843,29.494 14.224,29.171 C13.204,28.64 12.392,27.938 11.97,27.109 z M28.038,27.115 C27.616,27.941 26.804,28.641 25.786,29.171 C25.165,29.495 24.455,29.764 23.681,29.969 C24.312,30.792 24.897,31.837 25.433,33.089 C26.246,32.979 27.235,32.484 28.019,31.811 C28.911,31.045 29.5,30.057 29.5,29.426 C29.5,28.632 28.995,27.825 28.038,27.115 z" fill="#FFFFFF"/>
  </g>
</svg>
