<?xml version="1.0" encoding="UTF-8"?>
<!DOCTYPE svg PUBLIC "-//W3C//DTD SVG 1.1//EN" "http://www.w3.org/Graphics/SVG/1.1/DTD/svg11.dtd">
<svg version="1.1" xmlns="http://www.w3.org/2000/svg" xmlns:xlink="http://www.w3.org/1999/xlink" x="0" y="0" width="20" height="20" viewBox="0, 0, 40, 40">
  <g id="Layer_1">
    <path d="M20,40 C8.954,40 0,31.046 0,20 C0,8.954 8.954,0 20,0 C31.046,0 40,8.954 40,20 C40,31.046 31.046,40 20,40 z" fill="#444444"/>
    <g>
      <path d="M15.434,23.324 L17.781,24.133 L19.686,25.779 L28.543,15.02 L27.382,7.212 L20.31,10.225 L15.434,23.324 z" fill="#FFFFFF"/>
      <g>
        <path d="M12.508,33.265 C11.395,32.623 11.014,31.199 11.656,30.086 C12.299,28.973 13.722,28.592 14.835,29.235 C15.948,29.877 16.33,31.301 15.687,32.414 C15.045,33.527 13.621,33.908 12.508,33.265 z" fill="#FFFFFF"/>
        <path d="M12.972,30.972 L14.021,26.245 L10.085,23.972 L10.846,22.144 L17.544,24.542 L22.97,29.144 L21.737,30.7 L18.052,28.572 L14.389,31.79 L12.972,30.972 z" fill="#FFFFFF"/>
      </g>
    </g>
  </g>
</svg>
