<?xml version="1.0" encoding="UTF-8"?>
<!DOCTYPE svg PUBLIC "-//W3C//DTD SVG 1.1//EN" "http://www.w3.org/Graphics/SVG/1.1/DTD/svg11.dtd">
<svg version="1.1" xmlns="http://www.w3.org/2000/svg" xmlns:xlink="http://www.w3.org/1999/xlink" x="0" y="0" width="30" height="30" viewBox="0, 0, 40, 40">
  <g id="Layer_1">
    <path d="M8.006,8.308 C8.568,8.87 9.433,8.964 10.097,8.588 C10.428,8.888 10.752,9.17 11.07,9.436 C11.051,9.538 11.04,9.643 11.04,9.75 C11.04,10.704 11.826,11.488 12.78,11.488 C13.056,11.488 13.317,11.422 13.549,11.306 C13.872,11.525 14.198,11.739 14.53,11.95 C14.503,12.07 14.489,12.194 14.489,12.322 C14.489,13.276 15.274,14.06 16.228,14.06 C16.653,14.06 17.044,13.905 17.348,13.648 L18.126,14.104 C18.111,14.19 18.102,14.278 18.102,14.369 L18.102,16.55 L12.323,19.896 L12.323,28.87 L20.077,33.358 L27.83,28.87 L27.83,19.896 L21.996,16.519 L21.996,14.369 C21.996,14.314 21.993,14.26 21.987,14.207 C22.289,14.035 22.584,13.866 22.867,13.702 C23.16,13.926 23.525,14.06 23.919,14.06 C24.873,14.06 25.657,13.276 25.657,12.322 C25.657,12.217 25.647,12.115 25.629,12.015 C25.968,11.791 26.302,11.563 26.637,11.325 C26.859,11.429 27.107,11.488 27.367,11.488 C28.321,11.488 29.107,10.704 29.107,9.75 C29.107,9.639 29.096,9.531 29.076,9.426 C29.371,9.176 29.675,8.913 29.991,8.634 C30.641,8.955 31.456,8.846 31.994,8.308 C31.526,6.916 31.51,7.31 31.253,7.567 C30.979,7.841 30.549,7.841 30.275,7.567 C30.018,7.31 30.003,6.915 30.228,6.642 L29.083,6.642 C28.976,7.062 29.027,7.516 29.236,7.905 C29.005,8.108 28.78,8.303 28.561,8.49 C28.248,8.193 27.827,8.01 27.367,8.01 C26.412,8.01 25.627,8.795 25.627,9.75 C25.627,10.055 25.708,10.343 25.848,10.594 C25.61,10.76 25.372,10.921 25.131,11.08 C24.817,10.773 24.389,10.582 23.919,10.582 C22.964,10.582 22.179,11.368 22.179,12.322 C22.179,12.499 22.206,12.671 22.256,12.833 C22.019,12.97 21.766,13.115 21.514,13.259 C21.456,13.203 21.395,13.152 21.332,13.107 C20.956,12.84 20.506,12.721 20.058,12.714 C19.61,12.706 19.153,12.81 18.77,13.078 C18.725,13.11 18.681,13.145 18.639,13.182 C18.394,13.038 18.148,12.892 17.913,12.755 C17.949,12.616 17.969,12.471 17.969,12.322 C17.969,11.368 17.183,10.582 16.229,10.582 C15.781,10.582 15.371,10.755 15.062,11.036 C14.811,10.877 14.563,10.717 14.319,10.554 C14.446,10.313 14.519,10.039 14.519,9.75 C14.519,8.795 13.735,8.01 12.781,8.01 C12.317,8.01 11.894,8.195 11.581,8.495 C11.328,8.28 11.071,8.055 10.808,7.818 C10.98,7.449 11.017,7.031 10.917,6.642 L9.772,6.642 C9.998,6.916 9.982,7.31 9.725,7.567 C9.451,7.841 9.021,7.841 8.747,7.567 M12.78,9.058 C13.169,9.058 13.471,9.362 13.471,9.75 C13.471,10.138 13.169,10.44 12.78,10.44 C12.392,10.44 12.088,10.138 12.088,9.75 C12.088,9.362 12.392,9.058 12.78,9.058 z M27.367,9.058 C27.755,9.058 28.059,9.362 28.059,9.75 C28.059,10.138 27.755,10.44 27.367,10.44 C26.978,10.44 26.675,10.138 26.675,9.75 C26.675,9.362 26.978,9.058 27.367,9.058 z M16.229,11.63 C16.617,11.63 16.921,11.934 16.921,12.322 C16.921,12.71 16.617,13.012 16.229,13.012 C15.84,13.012 15.536,12.71 15.536,12.322 C15.536,11.934 15.84,11.63 16.228,11.63 z M23.919,11.63 C24.307,11.63 24.609,11.934 24.609,12.322 C24.609,12.71 24.307,13.012 23.919,13.012 C23.53,13.012 23.226,12.71 23.226,12.322 C23.226,11.934 23.53,11.63 23.919,11.63 z M20.041,13.761 C20.304,13.765 20.565,13.847 20.724,13.96 C20.882,14.073 20.948,14.173 20.948,14.369 L20.948,15.912 L20.077,15.407 L19.15,15.944 L19.15,14.369 C19.15,14.14 19.221,14.042 19.372,13.936 C19.523,13.83 19.778,13.757 20.041,13.761 z M19.585,16.903 L19.585,18.738 L15.426,21.16 L13.825,20.237 L19.585,16.903 z M20.633,16.94 L26.361,20.256 L24.756,21.181 L20.633,18.78 L20.633,16.94 z M20.073,19.666 L24.124,22.026 L24.124,26.753 L20.073,29.113 L16.022,26.753 L16.022,22.026 L20.073,19.666 z M20.099,20.694 L16.91,26.197 L16.91,26.238 L20.081,28.086 L23.253,26.238 L23.253,22.532 L20.099,20.694 z M13.371,21.185 L14.974,22.109 L14.974,26.82 L13.371,27.744 L13.371,21.185 z M26.782,21.223 L26.782,27.707 L25.172,26.779 L25.172,22.151 L26.782,21.223 z M24.626,27.673 L26.219,28.592 L20.633,31.826 L20.633,29.999 L24.626,27.673 z M15.556,27.694 L19.585,30.041 L19.585,31.863 L13.967,28.611 L15.556,27.694 z" fill="#FFFFFF"/>
  </g>
</svg>
