<?xml version="1.0" encoding="UTF-8"?>
<!DOCTYPE svg PUBLIC "-//W3C//DTD SVG 1.1//EN" "http://www.w3.org/Graphics/SVG/1.1/DTD/svg11.dtd">
<svg version="1.1" xmlns="http://www.w3.org/2000/svg" xmlns:xlink="http://www.w3.org/1999/xlink" x="0" y="0" width="30" height="30" viewBox="0, 0, 40, 40">
  <g id="Layer_1">
    <path d="M20.392,6.443 C16.744,6.337 13.21,7.712 10.593,10.255 C7.976,12.797 6.5,16.291 6.501,19.94 C6.456,24.792 9.019,29.295 13.214,31.734 C17.409,34.173 22.591,34.173 26.786,31.734 C30.981,29.295 33.544,24.792 33.499,19.94 C33.501,12.636 27.693,6.655 20.392,6.443 z M20.066,7.085 L20.695,7.448 L20.695,8.174 L20.066,8.537 L19.439,8.174 L19.439,7.448 L20.066,7.085 z M20.315,9.144 C26.154,9.314 30.8,14.098 30.8,19.94 C30.779,25.889 25.95,30.701 20,30.701 C14.051,30.701 9.222,25.889 9.2,19.94 C9.2,17.021 10.382,14.226 12.475,12.193 C14.569,10.159 17.397,9.059 20.315,9.144 z M19.503,10.554 C17.872,10.639 16.291,11.146 14.916,12.026 L14.916,27.84 C16.29,28.725 17.871,29.237 19.503,29.325 L19.503,10.555 z M20.748,10.576 L20.748,29.312 C22.344,29.184 23.882,28.65 25.214,27.761 L25.214,12.125 C23.882,11.237 22.344,10.704 20.748,10.576 z M13.673,12.994 C11.716,14.774 10.599,17.295 10.595,19.94 C10.596,22.588 11.714,25.113 13.673,26.894 L13.673,12.994 z M9.398,13.109 L10.025,13.472 L10.025,14.195 L9.398,14.558 L8.769,14.195 L8.769,13.472 L9.398,13.109 z M30.553,13.109 L31.183,13.472 L31.183,14.195 L30.553,14.558 L29.927,14.195 L29.927,13.472 L30.554,13.109 z M26.459,13.115 L26.459,26.771 C28.338,24.995 29.404,22.525 29.405,19.94 C29.402,17.357 28.337,14.889 26.459,13.115 z M30.529,25.303 L31.159,25.666 L31.159,26.392 L30.529,26.755 L29.902,26.392 L29.902,25.666 L30.529,25.303 z M9.422,25.354 L10.051,25.717 L10.051,26.443 L9.422,26.806 L8.793,26.443 L8.793,25.717 L9.422,25.354 z M19.976,31.351 L20.605,31.714 L20.605,32.44 L19.976,32.803 L19.349,32.44 L19.349,31.714 L19.976,31.351 z" fill="#FFFFFF"/>
  </g>
</svg>
