<?xml version="1.0" encoding="UTF-8"?>
<!DOCTYPE svg PUBLIC "-//W3C//DTD SVG 1.1//EN" "http://www.w3.org/Graphics/SVG/1.1/DTD/svg11.dtd">
<svg version="1.1" xmlns="http://www.w3.org/2000/svg" xmlns:xlink="http://www.w3.org/1999/xlink" x="0" y="0" width="30" height="30" viewBox="0, 0, 20, 20">
  <g id="Layer_1">
    <path d="M10,20 C4.477,20 0,15.523 0,10 C0,4.477 4.477,-0 10,-0 C15.523,-0 20,4.477 20,10 C20,15.523 15.523,20 10,20 z" fill="#444444"/>
    <path d="M10.523,13.991 C7.562,11.281 3.812,14.022 3.812,14.022 C3.812,14.022 3.906,11.5 4.037,7.16 C7.562,3.131 10.661,7.078 10.661,7.078 C14.186,3.049 17.312,7.097 17.312,7.097 C17.312,7.097 17.237,13.896 17.237,13.896 C17.237,13.896 13.863,11.189 10.562,14.022 L10.523,13.991 z" fill-opacity="0" stroke="#FFFFFF" stroke-width="1"/>
    <path d="M10.661,7.078 L10.523,13.991" fill-opacity="0" stroke="#FFFFFF" stroke-width="1"/>
  </g>
</svg>
