<?xml version="1.0" encoding="UTF-8"?>
<!DOCTYPE svg PUBLIC "-//W3C//DTD SVG 1.1//EN" "http://www.w3.org/Graphics/SVG/1.1/DTD/svg11.dtd">
<svg version="1.1" xmlns="http://www.w3.org/2000/svg" xmlns:xlink="http://www.w3.org/1999/xlink" x="0" y="0" width="250" height="250" viewBox="0, 0, 250, 250">
  <g id="Layer_1">
    <path d="M236.5,121.5" fill-opacity="0" stroke="#000000" stroke-width="1"/>
    <g>
      <path d="M125.028,51.183 L125.028,51.183 C131.379,51.183 136.528,56.332 136.528,62.683 L136.528,68.35 C136.528,74.701 131.379,79.85 125.028,79.85 L125.028,79.85 C118.677,79.85 113.528,74.701 113.528,68.35 L113.528,62.683 C113.528,56.332 118.677,51.183 125.028,51.183 z" fill="#444444"/>
      <path d="M122.361,77.85 L127.695,77.85 L127.695,82.417 L122.361,82.417 L122.361,77.85 z" fill="#444444"/>
      <path d="M122.949,80.917 L103.527,84.405 C103.527,84.405 100.816,91.209 104.172,94.201 C107.528,97.192 110.428,135.417 110.428,135.417 L140.228,135.417 C140.228,135.417 142.682,98.04 145.667,94.678 C148.653,91.317 146.223,84.166 146.527,84.166 C146.742,84.166 127.535,80.917 127.535,80.917 C127.535,80.917 122.81,80.917 122.949,80.917 z" fill="#444444"/>
      <path d="M110.407,134.339 L92.628,198.817 L100.428,198.817 L125.945,134.817 L110.407,134.339 z" fill="#444444"/>
      <path d="M103.527,84.405 L76.028,119.817 L79.528,123.817 L104.172,94.201 L103.527,84.405 z" fill="#444444"/>
      <path d="M139.874,134.339 L157.653,198.817 L149.853,198.817 L124.336,134.817 L139.874,134.339 z" fill="#444444"/>
      <path d="M146.473,84.117 L173.972,119.528 L170.472,123.528 L145.828,93.912 L146.473,84.117 z" fill="#444444"/>
    </g>
    <path d="M100.456,198.017 L99.964,202.95 L81.028,203 C81.028,203 82.753,197.833 96.324,198.017 C96.521,198.2 100.456,198.017 100.456,198.017 z" fill="#444444"/>
    <path d="M149.572,198.017 L150.064,202.95 L169,203 C169,203 167.275,197.833 153.704,198.017 C153.507,198.2 149.572,198.017 149.572,198.017 z" fill="#444444"/>
  </g>
  <g id="Layer_2">
    <path d="M125.5,33.75 L125.5,60" fill-opacity="0" stroke="#666666" stroke-width="2"/>
    <g>
      <path d="M125.5,65 C124.119,65 123,63.881 123,62.5 C123,61.119 124.119,60 125.5,60 C126.881,60 128,61.119 128,62.5 C128,63.881 126.881,65 125.5,65 z" fill="#FFFFFF"/>
      <path d="M125.5,65 C124.119,65 123,63.881 123,62.5 C123,61.119 124.119,60 125.5,60 C126.881,60 128,61.119 128,62.5 C128,63.881 126.881,65 125.5,65 z" fill-opacity="0" stroke="#666666" stroke-width="2"/>
    </g>
    <path d="M125,33.25 C116.716,33.25 110,26.534 110,18.25 C110,9.966 116.716,3.25 125,3.25 C133.284,3.25 140,9.966 140,18.25 C140,26.534 133.284,33.25 125,33.25 z" fill="#444444"/>
  </g>
  <g id="Layer_3">
    <path d="M75,123 L29.1,123.1" fill-opacity="0" stroke="#666666" stroke-width="2"/>
    <g>
      <path d="M77.5,125.5 C76.119,125.5 75,124.381 75,123 C75,121.619 76.119,120.5 77.5,120.5 C78.881,120.5 80,121.619 80,123 C80,124.381 78.881,125.5 77.5,125.5 z" fill="#FFFFFF"/>
      <path d="M77.5,125.5 C76.119,125.5 75,124.381 75,123 C75,121.619 76.119,120.5 77.5,120.5 C78.881,120.5 80,121.619 80,123 C80,124.381 78.881,125.5 77.5,125.5 z" fill-opacity="0" stroke="#666666" stroke-width="2"/>
    </g>
    <path d="M25,137.5 C16.716,137.5 10,130.784 10,122.5 C10,114.216 16.716,107.5 25,107.5 C33.284,107.5 40,114.216 40,122.5 C40,130.784 33.284,137.5 25,137.5 z" fill="#444444"/>
  </g>
  <g id="Layer_4">
    <path d="M45.833,71.167 L77.75,115.25" fill-opacity="0" stroke="#666666" stroke-width="2"/>
    <g>
      <path d="M79.028,118.833 C77.647,118.833 76.528,117.714 76.528,116.333 C76.528,114.953 77.647,113.833 79.028,113.833 C80.409,113.833 81.528,114.953 81.528,116.333 C81.528,117.714 80.409,118.833 79.028,118.833 z" fill="#FFFFFF"/>
      <path d="M79.028,118.833 C77.647,118.833 76.528,117.714 76.528,116.333 C76.528,114.953 77.647,113.833 79.028,113.833 C80.409,113.833 81.528,114.953 81.528,116.333 C81.528,117.714 80.409,118.833 79.028,118.833 z" fill-opacity="0" stroke="#666666" stroke-width="2"/>
    </g>
    <path d="M38.667,74.367 C30.382,74.367 23.667,67.651 23.667,59.367 C23.667,51.082 30.382,44.367 38.667,44.367 C46.951,44.367 53.667,51.082 53.667,59.367 C53.667,67.651 46.951,74.367 38.667,74.367 z" fill="#444444"/>
  </g>
  <g id="Layer_5">
    <path d="M189,69 L128,80" fill-opacity="0" stroke="#666666" stroke-width="2"/>
    <g>
      <path d="M125.5,82.5 C124.119,82.5 123,81.381 123,80 C123,78.619 124.119,77.5 125.5,77.5 C126.881,77.5 128,78.619 128,80 C128,81.381 126.881,82.5 125.5,82.5 z" fill="#FFFFFF"/>
      <path d="M125.5,82.5 C124.119,82.5 123,81.381 123,80 C123,78.619 124.119,77.5 125.5,77.5 C126.881,77.5 128,78.619 128,80 C128,81.381 126.881,82.5 125.5,82.5 z" fill-opacity="0" stroke="#666666" stroke-width="2"/>
    </g>
    <path d="M198,79.5 C189.716,79.5 183,72.784 183,64.5 C183,56.216 189.716,49.5 198,49.5 C206.284,49.5 213,56.216 213,64.5 C213,72.784 206.284,79.5 198,79.5 z" fill="#444444"/>
  </g>
  <g id="Layer_6">
    <path d="M213.5,123 L176,123" fill-opacity="0" stroke="#666666" stroke-width="2"/>
    <g>
      <path d="M173.5,125.5 C172.119,125.5 171,124.381 171,123 C171,121.619 172.119,120.5 173.5,120.5 C174.881,120.5 176,121.619 176,123 C176,124.381 174.881,125.5 173.5,125.5 z" fill="#FFFFFF"/>
      <path d="M173.5,125.5 C172.119,125.5 171,124.381 171,123 C171,121.619 172.119,120.5 173.5,120.5 C174.881,120.5 176,121.619 176,123 C176,124.381 174.881,125.5 173.5,125.5 z" fill-opacity="0" stroke="#666666" stroke-width="2"/>
    </g>
    <path d="M225.167,137.55 C216.882,137.55 210.167,130.834 210.167,122.55 C210.167,114.266 216.882,107.55 225.167,107.55 C233.451,107.55 240.167,114.266 240.167,122.55 C240.167,130.834 233.451,137.55 225.167,137.55 z" fill="#444444"/>
  </g>
  <g id="Layer_7">
    <path d="M189,172.833 L126.5,113.833" fill-opacity="0" stroke="#666666" stroke-width="2"/>
    <g>
      <path d="M125.5,115.25 C124.119,115.25 123,114.131 123,112.75 C123,111.369 124.119,110.25 125.5,110.25 C126.881,110.25 128,111.369 128,112.75 C128,114.131 126.881,115.25 125.5,115.25 z" fill="#FFFFFF"/>
      <path d="M125.5,115.25 C124.119,115.25 123,114.131 123,112.75 C123,111.369 124.119,110.25 125.5,110.25 C126.881,110.25 128,111.369 128,112.75 C128,114.131 126.881,115.25 125.5,115.25 z" fill-opacity="0" stroke="#666666" stroke-width="2"/>
    </g>
    <path d="M198,194.45 C189.716,194.45 183,187.734 183,179.45 C183,171.166 189.716,164.45 198,164.45 C206.284,164.45 213,171.166 213,179.45 C213,187.734 206.284,194.45 198,194.45 z" fill="#444444"/>
  </g>
  <g id="Layer_8">
    <path d="M106.5,166.833 L52.25,182" fill-opacity="0" stroke="#666666" stroke-width="2"/>
    <g>
      <path d="M107.75,168.583 C106.369,168.583 105.25,167.464 105.25,166.083 C105.25,164.703 106.369,163.583 107.75,163.583 C109.131,163.583 110.25,164.703 110.25,166.083 C110.25,167.464 109.131,168.583 107.75,168.583 z" fill="#FFFFFF"/>
      <path d="M107.75,168.583 C106.369,168.583 105.25,167.464 105.25,166.083 C105.25,164.703 106.369,163.583 107.75,163.583 C109.131,163.583 110.25,164.703 110.25,166.083 C110.25,167.464 109.131,168.583 107.75,168.583 z" fill-opacity="0" stroke="#666666" stroke-width="2"/>
    </g>
    <path d="M43.6,196.333 C35.316,196.333 28.6,189.618 28.6,181.333 C28.6,173.049 35.316,166.333 43.6,166.333 C51.884,166.333 58.6,173.049 58.6,181.333 C58.6,189.618 51.884,196.333 43.6,196.333 z" fill="#444444"/>
  </g>
  <g id="Layer_9">
    <path d="M157.5,201.75 L128,232.75" fill-opacity="0" stroke="#666666" stroke-width="2"/>
    <g>
      <path d="M157.75,203.5 C156.369,203.5 155.25,202.381 155.25,201 C155.25,199.619 156.369,198.5 157.75,198.5 C159.131,198.5 160.25,199.619 160.25,201 C160.25,202.381 159.131,203.5 157.75,203.5 z" fill="#FFFFFF"/>
      <path d="M157.75,203.5 C156.369,203.5 155.25,202.381 155.25,201 C155.25,199.619 156.369,198.5 157.75,198.5 C159.131,198.5 160.25,199.619 160.25,201 C160.25,202.381 159.131,203.5 157.75,203.5 z" fill-opacity="0" stroke="#666666" stroke-width="2"/>
    </g>
    <path d="M126,247.333 C117.716,247.333 111,240.618 111,232.333 C111,224.049 117.716,217.333 126,217.333 C134.284,217.333 141,224.049 141,232.333 C141,240.618 134.284,247.333 126,247.333 z" fill="#444444"/>
  </g>
</svg>
