<?xml version="1.0" encoding="UTF-8"?>
<!DOCTYPE svg PUBLIC "-//W3C//DTD SVG 1.1//EN" "http://www.w3.org/Graphics/SVG/1.1/DTD/svg11.dtd">
<svg version="1.1" xmlns="http://www.w3.org/2000/svg" xmlns:xlink="http://www.w3.org/1999/xlink" x="0" y="0" width="30" height="30" viewBox="0, 0, 20, 20">
  <g id="Layer_1">
    <path d="M10,20 C4.477,20 0,15.523 0,10 C0,4.477 4.477,0 10,0 C15.523,0 20,4.477 20,10 C20,15.523 15.523,20 10,20 z" fill="#444444"/>
    <path d="M10.025,16.968 C10.025,16.968 6.317,13.745 4.373,11.391 C2.429,9.038 4.321,6.583 4.449,6.532 C7.033,3.667 9.872,6.122 9.872,6.122 C9.872,6.122 13.223,3.692 15.57,6.404 C16.037,7.018 17.406,9.217 15.57,11.391 C13.734,13.566 10.025,16.968 10.025,16.968 z" fill="#FFFFFF"/>
  </g>
</svg>
