<?xml version="1.0" encoding="UTF-8"?>
<!DOCTYPE svg PUBLIC "-//W3C//DTD SVG 1.1//EN" "http://www.w3.org/Graphics/SVG/1.1/DTD/svg11.dtd">
<svg version="1.1" xmlns="http://www.w3.org/2000/svg" xmlns:xlink="http://www.w3.org/1999/xlink" x="0" y="0" width="30" height="30" viewBox="0, 0, 20, 20">
  <g id="Layer_1">
    <path d="M10,20 C4.477,20 0,15.523 0,10 C0,4.477 4.477,0 10,0 C15.523,0 20,4.477 20,10 C20,15.523 15.523,20 10,20 z" fill="#444444"/>
    <path d="M6.613,9.328 L12.721,9.328 L12.721,10.672 L6.613,10.672 L6.613,9.328 z" fill="#FFFFFF"/>
    <g>
      <path d="M6.432,5.557 L8.098,5.557 L8.098,14.443 L6.432,14.443 L6.432,5.557 z" fill="#FFFFFF"/>
      <path d="M4.558,6.668 L6.224,6.668 L6.224,13.332 L4.558,13.332 L4.558,6.668 z" fill="#FFFFFF"/>
      <path d="M2.719,7.779 L4.385,7.779 L4.385,12.221 L2.719,12.221 L2.719,7.779 z" fill="#FFFFFF"/>
    </g>
    <g>
      <path d="M13.568,5.557 L11.902,5.557 L11.902,14.443 L13.568,14.443 L13.568,5.557 z" fill="#FFFFFF"/>
      <path d="M15.442,6.668 L13.776,6.668 L13.776,13.332 L15.442,13.332 L15.442,6.668 z" fill="#FFFFFF"/>
      <path d="M17.281,7.779 L15.615,7.779 L15.615,12.221 L17.281,12.221 L17.281,7.779 z" fill="#FFFFFF"/>
    </g>
    <path d="M1.673,9.328 L2.562,9.328 L2.562,10.672 L1.673,10.672 L1.673,9.328 z" fill="#FFFFFF"/>
    <path d="M17.438,9.328 L18.327,9.328 L18.327,10.672 L17.438,10.672 L17.438,9.328 z" fill="#FFFFFF"/>
  </g>
</svg>
