<?xml version="1.0" encoding="UTF-8"?>
<!DOCTYPE svg PUBLIC "-//W3C//DTD SVG 1.1//EN" "http://www.w3.org/Graphics/SVG/1.1/DTD/svg11.dtd">
<svg version="1.1" xmlns="http://www.w3.org/2000/svg" xmlns:xlink="http://www.w3.org/1999/xlink" x="0" y="0" width="30" height="30" viewBox="0, 0, 40, 40">
  <g id="Layer_1">
    <path d="M7.161,28.01 L10.716,27.843 L9.859,31.247 L12.828,29.426 L28.83,31.384 C29.438,32.024 30.175,32.54 31.101,32.877 C28.647,28.944 28.205,24.962 27.032,21.314 L25.089,22.944 C26.113,25.696 26.742,28.39 28.017,30.345 L14.106,28.643 L14.683,28.289 L14.915,28.199 L15.225,24.653 L27.392,15.703 C26.782,14.867 26.108,14.107 25.357,13.387 L14.719,23.977 L11.169,23.667 L10.661,24.217 L11.321,10.562 C12.999,12.212 15.548,13.28 18.094,14.733 L20.072,13.074 C16.705,11.315 12.902,10.19 9.491,7.123 C9.657,8.067 9.992,8.855 10.462,9.544 L10.437,9.542 L9.675,25.285 L7.161,28.01 z M9.389,26.971 L11.544,24.636 L14.269,24.874 L14.036,27.539 L14.026,27.569 L11.323,29.255 L11.929,26.852 L9.389,26.971 z M18.799,15.36 C19.423,15.824 20.009,16.32 20.559,16.846 L21.981,15.431 C21.595,14.838 21.225,14.234 20.865,13.626 L18.798,15.36 z M23.697,10.776 C26.367,12.802 28.379,14.964 29.873,18.067 C31.159,15.216 32.244,12.336 32.839,9.366 C29.784,9.535 26.738,10.034 23.697,10.777 z M23.183,19.957 C23.671,20.672 24.117,21.421 24.524,22.2 L26.551,20.5 C25.864,20.001 25.242,19.452 24.668,18.865 L23.183,19.957 z" fill="#FFFFFF"/>
  </g>
</svg>
