<?xml version="1.0" encoding="UTF-8"?>
<!DOCTYPE svg PUBLIC "-//W3C//DTD SVG 1.1//EN" "http://www.w3.org/Graphics/SVG/1.1/DTD/svg11.dtd">
<svg version="1.1" xmlns="http://www.w3.org/2000/svg" xmlns:xlink="http://www.w3.org/1999/xlink" x="0" y="0" width="30" height="30" viewBox="0, 0, 40, 40">
  <g id="Layer_1">
    <path d="M20.051,6.578 C15.917,6.578 12.373,10.053 11.365,14.832 C14.299,14.404 17.051,13.607 19.926,12.325 L20.156,12.224 L20.376,12.339 C23.125,13.766 25.807,14.62 28.754,14.919 C27.772,10.095 24.21,6.578 20.051,6.578 z M20.122,13.371 C16.93,14.769 13.845,15.595 10.528,15.985 C10.902,17.811 10.912,19.651 10.5,21.487 C15.466,23.8 23.382,23.887 29.441,21.48 C28.842,19.672 28.789,17.828 29.375,16.007 C26.092,15.772 23.111,14.892 20.123,13.371 z M19.372,15.213 L20.413,15.213 L20.413,22.317 L19.372,22.317 L19.372,15.213 z M16.103,15.835 L17.142,15.835 L17.142,21.488 L16.103,21.488 L16.103,15.835 z M22.538,15.835 L23.577,15.835 L23.577,21.488 L22.538,21.488 L22.538,15.835 z M12.989,16.664 L14.028,16.664 L14.028,21.073 L12.989,21.073 L12.989,16.664 z M25.652,16.664 L26.692,16.664 L26.692,21.073 L25.652,21.073 L25.652,16.664 z M27.807,23.157 C27.012,23.395 26.197,23.595 25.373,23.76 L24.304,27.322 C25.756,26.358 26.973,24.914 27.807,23.157 z M12.373,23.317 C13.149,24.888 14.234,26.2 15.519,27.128 L14.535,23.852 C13.79,23.707 13.068,23.528 12.373,23.317 z M24.227,23.965 C21.356,24.42 18.402,24.443 15.679,24.045 L16.838,27.91 C17.839,28.384 18.923,28.643 20.051,28.643 C21.085,28.643 22.081,28.425 23.011,28.025 L24.227,23.965 z M13.355,26.587 C12.274,27.786 11.33,29.055 10.653,30.6 C14.559,30.114 18.091,31.417 19.997,33.422 C22.204,31.442 25.765,30.326 29.5,30.962 C28.661,29.328 27.647,28.071 26.5,26.846 C24.766,28.612 22.523,29.683 20.051,29.683 C17.462,29.683 15.121,28.507 13.355,26.587 z" fill="#FFFFFF"/>
  </g>
</svg>
