<?xml version="1.0" encoding="UTF-8"?>
<!DOCTYPE svg PUBLIC "-//W3C//DTD SVG 1.1//EN" "http://www.w3.org/Graphics/SVG/1.1/DTD/svg11.dtd">
<svg version="1.1" xmlns="http://www.w3.org/2000/svg" xmlns:xlink="http://www.w3.org/1999/xlink" x="0" y="0" width="20" height="20" viewBox="0, 0, 40, 40">
  <g id="Layer_1">
    <path d="M20,40 C8.954,40 0,31.046 0,20 C0,8.954 8.954,0 20,0 C31.046,0 40,8.954 40,20 C40,31.046 31.046,40 20,40 z" fill="#444444"/>
    <path d="M13.002,6.946 L7,17.336 L10.096,19.123 L16.098,8.733 L13.002,6.946 z M16.108,10.79 L11.911,18.055 L23.921,24.986 L28.117,17.722 L16.108,10.79 z M20.742,10.828 L20.119,11.907 L24.835,14.629 L25.46,13.548 L20.742,10.828 z M29.904,16.702 L23.904,27.092 L27,28.879 L33,18.488 L29.904,16.702 z M14.887,20.971 L14.261,22.055 L18.977,24.774 L19.602,23.692 L14.887,20.971 z M14.716,23.515 L9.203,33.054 L12.931,33.054 L17.498,25.118 L14.715,23.515 z" fill="#FFFFFF"/>
  </g>
</svg>
