<?xml version="1.0" encoding="UTF-8"?>
<!DOCTYPE svg PUBLIC "-//W3C//DTD SVG 1.1//EN" "http://www.w3.org/Graphics/SVG/1.1/DTD/svg11.dtd">
<svg version="1.1" xmlns="http://www.w3.org/2000/svg" xmlns:xlink="http://www.w3.org/1999/xlink" x="0" y="0" width="20" height="20" viewBox="0, 0, 40, 40">
  <g id="Layer_1">
    <path d="M20,40 C8.954,40 0,31.046 0,20 C0,8.954 8.954,0 20,0 C31.046,0 40,8.954 40,20 C40,31.046 31.046,40 20,40 z" fill="#444444"/>
    <path d="M20,9.759 C16.495,9.759 13.321,10.328 10.977,11.277 C9.805,11.752 8.838,12.32 8.139,12.989 C7.44,13.659 7,14.458 7,15.327 C7,15.416 7.006,15.504 7.015,15.591 L7.015,15.62 C7.022,15.676 7.031,15.731 7.042,15.787 C7.046,15.81 7.051,15.833 7.056,15.857 C7.06,15.876 7.064,15.895 7.069,15.915 C7.076,15.945 7.083,15.976 7.091,16.006 C7.097,16.029 7.104,16.051 7.111,16.074 C7.116,16.094 7.122,16.113 7.128,16.133 C7.522,17.398 8.753,18.599 10.666,19.552 C10.825,19.631 10.989,19.708 11.156,19.783 L11.99,18.666 C11.773,18.59 11.563,18.511 11.361,18.429 C10.273,17.988 9.411,17.467 8.846,16.926 C8.281,16.385 8.022,15.855 8.022,15.327 C8.022,14.799 8.281,14.269 8.846,13.728 C9.411,13.187 10.273,12.666 11.361,12.225 C13.537,11.344 16.607,10.782 20,10.782 C23.393,10.782 26.463,11.344 28.639,12.225 C29.727,12.666 30.589,13.187 31.154,13.728 C31.719,14.269 31.978,14.799 31.978,15.327 C31.978,15.855 31.719,16.385 31.154,16.926 C30.589,17.467 29.727,17.988 28.639,18.429 C28.437,18.511 28.226,18.59 28.009,18.666 L28.839,19.779 C29.004,19.705 29.164,19.63 29.32,19.552 C30.958,18.737 32.096,17.739 32.637,16.675 C32.869,16.253 33,15.8 33,15.327 C33,14.458 32.56,13.659 31.861,12.989 C31.162,12.32 30.195,11.752 29.023,11.277 C26.679,10.328 23.505,9.759 20,9.759 z M16.892,13.804 L11.949,20.431 L12.705,21.398 L14.989,18.528 L18.338,22.148 L13.291,22.148 L15.573,25.066 L15.573,30.241 L17.055,30.241 L17.055,25.586 L18.077,25.586 L18.077,30.241 L19.488,30.241 L19.488,25.586 L20.51,25.586 L20.51,30.241 L21.921,30.241 L21.921,25.586 L22.943,25.586 L22.943,30.241 L24.425,30.241 L24.425,25.066 L26.707,22.148 L21.66,22.148 L25.009,18.528 L27.293,21.398 L28.05,20.431 L23.106,13.804 L16.892,13.804 z M32.988,18.018 C32.241,18.967 31.126,19.795 29.776,20.467 C29.544,20.583 29.305,20.694 29.059,20.8 L26.161,24.506 C27.336,24.197 28.402,23.805 29.32,23.348 C31.569,22.229 32.876,20.766 32.988,19.26 L32.988,18.018 z M7.015,18.037 L7.015,19.416 C7.202,20.866 8.495,22.267 10.666,23.348 C11.589,23.807 12.659,24.2 13.84,24.509 L10.945,20.808 C10.693,20.699 10.448,20.585 10.211,20.467 C8.87,19.8 7.762,18.978 7.015,18.037 z M19.999,21.437 L21.143,24.478 L18.855,24.478 L19.999,21.437 z M32.988,21.814 C32.241,22.763 31.126,23.591 29.776,24.263 C28.53,24.884 27.065,25.382 25.448,25.73 L25.448,26.936 C26.915,26.649 28.235,26.252 29.341,25.773 C30.519,25.264 31.454,24.661 32.072,24.029 C32.691,23.397 32.988,22.761 32.988,22.115 L32.988,21.814 z M7.015,21.833 L7.015,22.115 C7.015,22.761 7.312,23.397 7.93,24.029 C8.549,24.661 9.483,25.264 10.661,25.773 C11.767,26.252 13.085,26.648 14.551,26.935 L14.551,25.732 C12.929,25.385 11.46,24.885 10.211,24.263 C8.87,23.596 7.762,22.774 7.015,21.833 z" fill="#FFFFFF"/>
  </g>
</svg>
