<?xml version="1.0" encoding="UTF-8"?>
<!DOCTYPE svg PUBLIC "-//W3C//DTD SVG 1.1//EN" "http://www.w3.org/Graphics/SVG/1.1/DTD/svg11.dtd">
<svg version="1.1" xmlns="http://www.w3.org/2000/svg" xmlns:xlink="http://www.w3.org/1999/xlink" x="0" y="0" width="20" height="20" viewBox="0, 0, 40, 40">
  <g id="Layer_1">
    <path d="M20,40 C8.954,40 0,31.046 0,20 C0,8.954 8.954,0 20,0 C31.046,0 40,8.954 40,20 C40,31.046 31.046,40 20,40 z" fill="#444444"/>
    <path d="M26.303,6.856 C22.605,6.856 19.607,9.853 19.607,13.551 C19.607,17.249 22.604,20.247 26.303,20.247 C30.001,20.247 33,17.25 33,13.551 C33,9.853 30.001,6.856 26.303,6.856 z M26.303,7.986 C29.377,7.986 31.869,10.478 31.869,13.551 C31.869,16.625 29.376,19.117 26.303,19.117 C23.229,19.117 20.739,16.625 20.739,13.551 C20.739,11.574 21.769,9.839 23.322,8.852 C23.036,9.194 22.863,9.635 22.863,10.116 C22.863,11.208 23.749,12.094 24.842,12.094 C25.935,12.094 26.821,11.208 26.821,10.116 C26.821,9.071 26.009,8.217 24.982,8.145 C25.406,8.042 25.848,7.986 26.303,7.986 z M22.56,11.877 C22.057,11.877 21.646,12.286 21.646,12.79 C21.646,13.294 22.056,13.703 22.56,13.703 C23.064,13.703 23.473,13.295 23.473,12.79 C23.473,12.286 23.065,11.877 22.56,11.877 z M17.993,16.245 C17.943,16.711 17.853,17.137 17.724,17.526 L22.422,22.224 C22.808,22.094 23.231,22 23.694,21.947 L17.993,16.245 z M17.208,18.592 C16.914,19.031 16.545,19.393 16.101,19.682 L20.266,23.849 C20.555,23.406 20.919,23.036 21.358,22.742 L17.208,18.592 z M15.027,20.191 C14.644,20.319 14.225,20.413 13.772,20.471 C15.72,22.369 17.515,24.215 19.469,26.168 C19.529,25.717 19.624,25.3 19.753,24.919 L15.027,20.191 z M14.088,22.37 L7,29.437 L7,30.75 L14.735,23.017 L14.088,22.37 z M15.525,23.806 L7,32.33 L7,33.144 L10.215,33.144 L17.539,25.82 L15.525,23.806 z" fill="#FFFFFF"/>
  </g>
</svg>
