<?xml version="1.0" encoding="UTF-8"?>
<!DOCTYPE svg PUBLIC "-//W3C//DTD SVG 1.1//EN" "http://www.w3.org/Graphics/SVG/1.1/DTD/svg11.dtd">
<svg version="1.1" xmlns="http://www.w3.org/2000/svg" xmlns:xlink="http://www.w3.org/1999/xlink" x="0" y="0" width="20" height="20" viewBox="0, 0, 40, 40">
  <g id="Layer_1">
    <path d="M20,40 C8.954,40 0,31.046 0,20 C0,8.954 8.954,0 20,0 C31.046,0 40,8.954 40,20 C40,31.046 31.046,40 20,40 z" fill="#444444"/>
    <path d="M18.142,8.747 C17.687,8.748 17.204,8.778 16.705,8.841 C14.223,9.153 11.315,10.23 9,12.235 L11.401,25.879 L11.426,26.605 C14.457,27.738 18.659,28.366 22.393,28.345 C24.344,28.334 26.169,28.148 27.628,27.787 C29.086,27.425 30.153,26.867 30.627,26.285 L30.659,26.31 C30.535,25.89 30.379,25.479 30.19,25.085 L30.203,25.085 C30.1,24.874 29.983,24.667 29.856,24.465 C29.849,24.454 29.844,24.443 29.838,24.433 C29.831,24.421 29.823,24.411 29.816,24.399 C28.276,21.897 25.26,20.391 20.9,22.292 C20.896,22.294 20.892,22.295 20.889,22.297 C20.078,22.677 19.258,23.165 18.452,23.745 L18.393,23.745 C19.184,22.617 20.062,21.728 20.969,21.07 L21.05,20.27 C19.997,19.986 18.318,19.979 17.21,20.263 L16.876,18.963 C17.543,18.792 18.297,18.696 19.053,18.687 C19.16,18.686 19.268,18.687 19.375,18.69 C20.001,18.702 20.621,18.775 21.187,18.914 L21.415,16.62 C19.905,16.041 18.394,16.146 16.784,16.506 L16.493,15.197 C17.318,15.012 18.166,14.885 19.026,14.876 C19.149,14.875 19.272,14.877 19.396,14.881 C20.11,14.903 20.83,15.013 21.552,15.248 L21.779,12.991 C19.942,12.439 18.118,12.409 16.262,12.791 L15.99,11.48 C16.772,11.319 17.558,11.223 18.346,11.202 C18.429,11.2 18.511,11.198 18.593,11.197 C19.699,11.189 20.807,11.328 21.913,11.634 L21.947,11.305 C22.308,9.632 20.602,8.743 18.143,8.747 z M30.954,27.809 C30.177,28.393 29.142,28.792 27.95,29.087 C26.345,29.485 24.43,29.674 22.4,29.686 C20.877,29.694 19.291,29.604 17.73,29.417 L18.622,31.004 C24.373,31.681 28.773,30.919 30.963,29.441 C31.015,28.907 31.012,28.358 30.954,27.809 z M11.473,28.047 L11.545,30.233 L15.748,30.838 L16.436,29.237 C14.675,28.963 12.978,28.565 11.473,28.047 z" fill="#FFFFFF"/>
  </g>
</svg>
