<?xml version="1.0" encoding="UTF-8"?>
<!DOCTYPE svg PUBLIC "-//W3C//DTD SVG 1.1//EN" "http://www.w3.org/Graphics/SVG/1.1/DTD/svg11.dtd">
<svg version="1.1" xmlns="http://www.w3.org/2000/svg" xmlns:xlink="http://www.w3.org/1999/xlink" x="0" y="0" width="30" height="30" viewBox="0, 0, 40, 40">
  <g id="Layer_1">
    <path d="M19.675,6.172 C17.067,6.182 14.568,6.603 12.735,7.401 L12.631,8.343 L14.132,8.343 L14.132,9.437 L12.512,9.437 L12.387,10.573 L14.132,10.573 L14.132,11.667 L12.267,11.667 L10,32.323 L17.22,33.776 L19.22,18.389 L18.406,18.389 L18.406,12.667 L17.484,12.667 L17.484,11.667 L15.226,11.667 L15.226,10.573 L17.484,10.573 L17.484,9.437 L15.226,9.437 L15.226,8.343 L17.484,8.343 L17.484,7.364 L22.807,7.364 L22.807,8.343 L24.741,8.343 L24.741,9.437 L22.807,9.437 L22.807,10.573 L24.741,10.573 L24.741,11.667 L22.807,11.667 L22.807,12.667 L19.5,12.667 L19.5,17.296 L21.104,17.296 L21.104,18.389 L20.427,18.389 L22.432,33.829 L22.445,33.829 L30,32.29 L27.733,11.667 L25.835,11.667 L25.835,10.573 L27.614,10.573 L27.488,9.437 L25.834,9.437 L25.834,8.343 L27.369,8.343 L27.265,7.401 C25,6.563 22.283,6.162 19.675,6.172 z M18.578,8.458 L18.578,9.481 L20.623,9.481 L20.623,10.575 L18.578,10.575 L18.578,11.573 L21.713,11.573 L21.713,8.458 L18.578,8.458 z" fill="#FFFFFF"/>
  </g>
</svg>
